<svg xmlns="http://www.w3.org/2000/svg" viewBox="0 0 33.867 33.867" height="128" width="128"><circle r="15.633" cy="16.933" cx="16.933" stroke="#62cd61" stroke-width="2.484" stroke-linecap="round" stroke-linejoin="round" paint-order="fill markers stroke"/><path d="m 18.909319,10.597514 c 0,0 0.400904,-4.0090433 0.05011,-4.6103999 C 18.608638,5.3857577 18.307959,4.0327058 15.752194,3.8823667 13.19643,3.7320275 13.146317,4.6340622 13.19643,5.2354186 c 0.05011,0.6013566 1.603617,1.8040693 1.703843,2.3553128 0.100226,0.5512433 -0.300678,0.6514693 -1.002261,0.7516956 -0.701582,0.100226 -1.252826,0.8018084 -1.202713,1.3029387 0.05011,0.5011303 0.400904,1.7038433 1.1526,2.3051993 0.751696,0.601357 1.954409,0.801809 2.756217,2.405426 0,0 0.100229,0.300678 3e-6,0.551243 0,0 -0.801809,-0.250565 -1.65373,-0.952147 -0.851922,-0.701583 -1.302939,0.350791 -1.904296,0.200452 -0.601356,-0.150339 -2.204973,-0.601357 -2.605877,-2.906556 0,0 -0.100226,-0.300678 -0.300679,-0.200452 -0.2004517,0.100226 -0.2505647,0.701582 -0.2505647,0.952147 0,0.250566 0.2505647,1.1526 1.1024867,1.80407 0.851922,0.651469 1.002261,0.751695 1.302939,0.902034 0.300678,0.150339 1.503391,0 2.004521,0 0.501131,0 0.751696,0.05011 1.202713,0.451018 0.451018,0.400904 0.801809,0.651469 0.751696,0.952147 -0.05011,0.300678 -0.125283,1.027318 -0.526187,1.22777 0,0 -0.194295,0.576858 0.175395,0.927091 l 1.121135,-0.404631 1.284291,-0.898308 c 0,0 -1.753956,-0.65147 -0.601356,-2.355313 1.1526,-1.703843 1.202713,-1.753956 2.505651,-2.505652 1.302939,-0.751695 1.202713,-1.804069 0.200453,-2.004521 -1.002261,-0.2004521 -1.453278,1.052375 -1.503391,0.501131 z" fill="#62cd61"/><ellipse cx="13.225" cy="15.57" rx=".981" ry=".861" fill="none" stroke="#62cd61" stroke-width=".491" paint-order="fill markers stroke"/><g transform="rotate(-119.92 16.95 16.877)"><path d="m 18.909319,10.597514 c 0,0 0.400904,-4.0090433 0.05011,-4.6103999 C 18.608638,5.3857577 18.307959,4.0327058 15.752194,3.8823667 13.19643,3.7320275 13.146317,4.6340622 13.19643,5.2354186 c 0.05011,0.6013566 1.603617,1.8040693 1.703843,2.3553128 0.100226,0.5512433 -0.300678,0.6514693 -1.002261,0.7516956 -0.701582,0.100226 -1.252826,0.8018084 -1.202713,1.3029387 0.05011,0.5011303 0.400904,1.7038433 1.1526,2.3051993 0.751696,0.601357 1.954409,0.801809 2.756217,2.405426 0,0 0.100229,0.300678 3e-6,0.551243 0,0 -0.801809,-0.250565 -1.65373,-0.952147 -0.851922,-0.701583 -1.302939,0.350791 -1.904296,0.200452 -0.601356,-0.150339 -2.204973,-0.601357 -2.605877,-2.906556 0,0 -0.100226,-0.300678 -0.300679,-0.200452 -0.2004517,0.100226 -0.2505647,0.701582 -0.2505647,0.952147 0,0.250566 0.2505647,1.1526 1.1024867,1.80407 0.851922,0.651469 1.002261,0.751695 1.302939,0.902034 0.300678,0.150339 1.503391,0 2.004521,0 0.501131,0 0.751696,0.05011 1.202713,0.451018 0.451018,0.400904 0.801809,0.651469 0.751696,0.952147 -0.05011,0.300678 -0.125283,1.027318 -0.526187,1.22777 0,0 -0.194295,0.576858 0.175395,0.927091 l 1.121135,-0.404631 1.284291,-0.898308 c 0,0 -1.753956,-0.65147 -0.601356,-2.355313 1.1526,-1.703843 1.202713,-1.753956 2.505651,-2.505652 1.302939,-0.751695 1.202713,-1.804069 0.200453,-2.004521 -1.002261,-0.2004521 -1.453278,1.052375 -1.503391,0.501131 z" fill="#62cd61"/><ellipse ry=".861" rx=".981" cy="15.57" cx="13.225" fill="none" stroke="#62cd61" stroke-width=".491" paint-order="fill markers stroke"/></g><g transform="rotate(121.709 16.95 16.877)"><path d="m 18.909319,10.597514 c 0,0 0.400904,-4.0090433 0.05011,-4.6103999 C 18.608638,5.3857577 18.307959,4.0327058 15.752194,3.8823667 13.19643,3.7320275 13.146317,4.6340622 13.19643,5.2354186 c 0.05011,0.6013566 1.603617,1.8040693 1.703843,2.3553128 0.100226,0.5512433 -0.300678,0.6514693 -1.002261,0.7516956 -0.701582,0.100226 -1.252826,0.8018084 -1.202713,1.3029387 0.05011,0.5011303 0.400904,1.7038433 1.1526,2.3051993 0.751696,0.601357 1.954409,0.801809 2.756217,2.405426 0,0 0.100229,0.300678 3e-6,0.551243 0,0 -0.801809,-0.250565 -1.65373,-0.952147 -0.851922,-0.701583 -1.302939,0.350791 -1.904296,0.200452 -0.601356,-0.150339 -2.204973,-0.601357 -2.605877,-2.906556 0,0 -0.100226,-0.300678 -0.300679,-0.200452 -0.2004517,0.100226 -0.2505647,0.701582 -0.2505647,0.952147 0,0.250566 0.2505647,1.1526 1.1024867,1.80407 0.851922,0.651469 1.002261,0.751695 1.302939,0.902034 0.300678,0.150339 1.503391,0 2.004521,0 0.501131,0 0.751696,0.05011 1.202713,0.451018 0.451018,0.400904 0.801809,0.651469 0.751696,0.952147 -0.05011,0.300678 -0.125283,1.027318 -0.526187,1.22777 0,0 -0.194295,0.576858 0.175395,0.927091 l 1.121135,-0.404631 1.284291,-0.898308 c 0,0 -1.753956,-0.65147 -0.601356,-2.355313 1.1526,-1.703843 1.202713,-1.753956 2.505651,-2.505652 1.302939,-0.751695 1.202713,-1.804069 0.200453,-2.004521 -1.002261,-0.2004521 -1.453278,1.052375 -1.503391,0.501131 z" fill="#62cd61"/><ellipse ry=".861" rx=".981" cy="15.57" cx="13.225" fill="none" stroke="#62cd61" stroke-width=".491" paint-order="fill markers stroke"/></g></svg>