<svg xmlns="http://www.w3.org/2000/svg" viewBox="0 0 33.867 33.867" height="128" width="128"><path d="M 32.566188,16.933332 A 15.632855,15.632855 0 0 1 16.933332,32.566188 15.632855,15.632855 0 0 1 1.300477,16.933332 15.632855,15.632855 0 0 1 16.933332,1.300477 15.632855,15.632855 0 0 1 32.566188,16.933332 Z" stroke="#5aaff2" stroke-width="2.484" stroke-linecap="round" stroke-linejoin="round" paint-order="fill markers stroke"/><g fill="#5aaff2"><path d="m 13.26492,11.205757 3.339198,-5.7836607 3.339198,5.7836607 z" transform="matrix(1 0 0 2.38773 .33 -7.524)" paint-order="fill markers stroke"/><path d="M16.337 8.342 11.827 4.784 16.638 7.19ZM17.531 8.342 22.041 4.784 17.23 7.19ZM16.527 10.539 13.454 8.115 16.732 9.754ZM17.34 10.539 20.413 8.115 17.136 9.754Z"/><path d="m 13.26492,11.205757 3.339198,-5.7836607 3.339198,5.7836607 z" transform="matrix(1 0 0 -2.38773 .329 41.382)" paint-order="fill markers stroke"/><path d="M16.337 8.342 11.827 4.784 16.638 7.19ZM17.531 8.342 22.041 4.784 17.23 7.19ZM16.527 10.539 13.454 8.115 16.732 9.754ZM17.34 10.539 20.413 8.115 17.136 9.754Z" transform="matrix(1 0 0 -1 0 33.857)"/><path d="m 13.26492,11.205757 3.339198,-5.7836607 3.339198,5.7836607 z" transform="rotate(60 23.285 20.976) scale(1 2.38773)" paint-order="fill markers stroke"/><path d="M16.337 8.342 11.827 4.784 16.638 7.19ZM17.531 8.342 22.041 4.784 17.23 7.19ZM16.527 10.539 13.454 8.115 16.732 9.754ZM17.34 10.539 20.413 8.115 17.136 9.754Z" transform="rotate(60 16.934 16.929)"/><path d="m 13.26492,11.205757 3.339198,-5.7836607 3.339198,5.7836607 z" transform="rotate(60 -19.068 -3.477) scale(1 -2.38773)" paint-order="fill markers stroke"/><path d="M16.337 8.342 11.827 4.784 16.638 7.19ZM17.531 8.342 22.041 4.784 17.23 7.19ZM16.527 10.539 13.454 8.115 16.732 9.754ZM17.34 10.539 20.413 8.115 17.136 9.754Z" transform="scale(1 -1) rotate(-60 -12.387 0)"/><path d="m 13.26492,11.205757 3.339198,-5.7836607 3.339198,5.7836607 z" transform="rotate(-60 10.253 20.406) scale(1 2.38773)" paint-order="fill markers stroke"/><path d="M16.337 8.342 11.827 4.784 16.638 7.19ZM17.531 8.342 22.041 4.784 17.23 7.19ZM16.527 10.539 13.454 8.115 16.732 9.754ZM17.34 10.539 20.413 8.115 17.136 9.754Z" transform="rotate(-60 16.934 16.929)"/><path d="m 13.26492,11.205757 3.339198,-5.7836607 3.339198,5.7836607 z" transform="rotate(-60 52.607 -4.047) scale(1 -2.38773)" paint-order="fill markers stroke"/><path d="M16.337 8.342 11.827 4.784 16.638 7.19ZM17.531 8.342 22.041 4.784 17.23 7.19ZM16.527 10.539 13.454 8.115 16.732 9.754ZM17.34 10.539 20.413 8.115 17.136 9.754Z" transform="scale(1 -1) rotate(60 46.255 0)"/></g><path d="m 20.930934,19.241349 -3.997602,2.308017 -3.997601,-2.308017 0,-4.616033 3.997601,-2.308017 3.997602,2.308017 z" fill="#5aaff2" stroke="#5aaff2" stroke-width="1.439" stroke-linecap="round" paint-order="fill markers stroke"/></svg>