<svg xmlns="http://www.w3.org/2000/svg" viewBox="0 0 33.867 33.867" height="128" width="128"><circle r="15.633" cy="16.933" cx="16.933" fill="#ccc" stroke="#000" stroke-width="2.484" stroke-linecap="round" stroke-linejoin="round" paint-order="fill markers stroke"/><path d="M 26.292968,6.4633929 V 16.952232 c 0,0 0.354354,7.795759 -8.717075,10.276226 C 8.504464,24.747991 8.858818,16.952232 8.858818,16.952232 V 6.4633929 Z" fill="#5d5c55" stroke="#000" stroke-width=".265" transform="translate(-.643 .085)"/><path d="M 17.595519,15.274731 H 9.735637 c 0.1209897,-0.03025 -1.6682115,8.136028 7.840256,10.956371 z" fill="#fff" transform="translate(-.643 .085)"/><path fill="#5eb55f" paint-order="fill markers stroke" d="M9.696 7.461H17.556V15.275H9.696z" transform="translate(-.643 .085)"/><path fill="#fff" paint-order="fill markers stroke" d="M17.556 7.461H25.416V15.275H17.556z" transform="translate(-.643 .085)"/><path d="m 17.556267,15.274731 h 7.859882 c -0.07014,-0.03826 1.780099,8.083773 -7.840256,10.956371 z" fill="#6c8ee4" transform="translate(-.643 .085)"/><path d="m 25.455401,7.4612157 v 9.4810353 c 0,0 0.320307,7.046716 -7.879508,9.288851 C 9.3760782,23.988967 9.6963846,16.942251 9.6963846,16.942251 V 7.4612157 Z" fill="none" stroke="#000" stroke-width=".239" transform="translate(-.643 .085)"/><path d="M12.745 7.457V23.714M22.367 7.457V23.714M15.953 7.457V25.648M19.243 7.457V25.648" fill="none" stroke="#000" stroke-width=".265" transform="translate(-.643 .085)"/><path d="M 13.111049,23.117969 25.194475,11.034543 c 0,0 1.381975,-2.3032931 1.311105,-3.7915741 -1.488281,-0.070871 -3.791574,1.3111049 -3.791574,1.3111049 L 10.63058,20.6375 Z" fill="#ceced6" stroke="#000" stroke-width=".265" transform="translate(.163 .046)"/><path d="M 12.594357,22.473373 25.335441,9.7496638 c 0,0 0.744007,-1.2400132 0.705854,-2.0412528 -0.80124,-0.038154 -2.041253,0.7058538 -2.041253,0.7058538 L 11.232504,21.032162 Z" fill="#6b656b" transform="translate(.163 .046)"/><path d="M 13.232377,20.729 25.010219,8.9160263 c 0,0 0.135719,-0.2262 0.12876,-0.37236 -0.14616,-0.007 -0.37236,0.12876 -0.37236,0.12876 L 12.983952,20.466098 Z" fill="#f2f2f2" transform="translate(.163 .046)"/><path d="m 10.63058,20.6375 0.405611,0.405611 h 0.381229 l 0.466236,-0.466237 h 1.237607 v 1.187494 l -0.400904,0.400904 v 0.5763 l 0.39069,0.376397 M 10.63058,20.6375 9.6246735,19.58148 8.8601531,20.022876 v 1.399053 l 0.8401443,0.890258 -2.667768,2.667768 v 0.902034 l 0.6514692,0.65147 h 0.8018087 l 2.6810477,-2.681048 0.876978,0.876978 h 1.804069 l 0.250565,-0.624002 -0.987418,-0.987418" fill="#944132" stroke="#000" stroke-width=".265" transform="translate(.163 .046)"/><path d="m 9.7002974,22.312187 1.4665576,1.540224 -2.6810477,2.681048 H 7.6839986 l -0.6514692,-0.65147 v -0.902034 z" fill="#a15b45" transform="translate(.163 .046)"/><path d="m 9.7002974,22.312187 1.4665576,1.540224 -2.6810477,2.681048 H 7.6839986 l -0.6514692,-0.65147 v -0.902034 z" fill="none" stroke="#000" stroke-width=".265" transform="translate(.163 .046)"/></svg>