<svg xmlns="http://www.w3.org/2000/svg" viewBox="0 0 33.867 33.867" height="128" width="128"><circle r="15.633" cy="16.933" cx="16.933" fill="#232323" stroke="#f5d04c" stroke-width="2.484" stroke-linecap="round" stroke-linejoin="round" paint-order="fill markers stroke"/><circle cx="16.983" cy="6.961" r="2.416" fill="#232323" stroke="#f5d04c" stroke-width="1.455" stroke-linecap="round" stroke-linejoin="round" paint-order="fill markers stroke"/><path fill="#f5d04c" paint-order="fill markers stroke" d="M15.869 9.445H18.074V25.682H15.869z"/><path transform="rotate(90)" fill="#f5d04c" paint-order="fill markers stroke" d="M12.251-22.507H14.105V-11.437H12.251z"/><path d="m 17.145248,30.49907 c 0.440942,-0.711224 1.735493,-3.198198 3.096738,-4.36016 1.299379,-0.952016 2.105858,-0.922116 3.545838,-2.113159 1.609867,-1.331561 2.560672,-3.543342 2.560672,-3.543342 0.148828,0.248047 0.856127,1.22996 0.856127,1.22996 0.39688,0.347266 0.37207,-0.272851 0.37207,-0.272851 l -0.37207,-4.373889 c -0.595312,0.84336 -3.646287,2.530079 -3.745507,2.778126 -0.09922,0.248042 0.644921,0.223242 0.644921,0.223242 l 0.843359,-0.02481 c -1.438671,2.629297 -4.71289,3.175 -5.407421,3.472656 -0.694531,0.297657 -1.637109,-1.984375 -1.637109,-1.984375 h -1.862502 c 0,0 -0.942578,2.282032 -1.637109,1.984375 -0.694531,-0.297656 -3.96875,-0.843359 -5.4074218,-3.472656 l 0.8433596,0.02481 c 0,0 0.7441402,0.0248 0.6449212,-0.223242 -0.09922,-0.248047 -3.1501949,-1.934766 -3.7455074,-2.778126 l -0.3720702,4.373889 c 0,0 -0.024805,0.620117 0.3720703,0.272851 0,0 0.7072987,-0.981913 0.8561268,-1.22996 0,0 0.9508055,2.211781 2.5606725,3.543342 1.43998,1.191043 2.246459,1.161143 3.545838,2.113159 1.361245,1.161962 2.690876,3.648936 3.096738,4.36016 0.173633,0.188545 0.173633,0.179245 0.347266,0 z" fill="#f5d04c" stroke="#f4d04c" stroke-width=".265"/></svg>