<svg xmlns="http://www.w3.org/2000/svg" viewBox="0 0 33.867 33.867" height="128" width="128"><circle r="15.633" cy="16.933" cx="16.933" stroke="#fff" stroke-width="2.484" stroke-linecap="round" stroke-linejoin="round" paint-order="fill markers stroke"/><path transform="rotate(4.824 188.197 -75.757) scale(1.54748)" d="m 21.982918,25.648127 -2.011424,-0.469563 -0.246703,2.050721 -1.729521,-1.129192 -0.933213,1.84267 -1.239011,-1.652625 -1.507164,1.412365 -0.599059,-1.976726 -1.899328,0.81171 0.113149,-2.062406 -2.062405,0.113149 0.811709,-1.899328 -1.9767259,-0.599059 1.4123659,-1.507163 -1.6526251,-1.239012 1.8426701,-0.933212 -1.1291927,-1.729521 2.0507207,-0.246703 -0.469563,-2.011425 2.011425,0.469563 0.246703,-2.050721 1.729521,1.129192 0.933213,-1.842669 1.239011,1.652624 1.507163,-1.412365 0.59906,1.976726 1.899327,-0.811709 -0.113149,2.062405 2.062406,-0.113149 -0.81171,1.899328 1.976727,0.599059 -1.412366,1.507163 1.652625,1.239012 -1.84267,0.933213 1.129192,1.729521 -2.05072,0.246703 z" stroke="#fff" stroke-width=".846" stroke-linecap="round" paint-order="fill markers stroke"/><path d="m 9.3072406,13.437507 c -0.064251,0.90875 -0.06214,0.842814 0,1.519197 0.062165,0.676636 -0.076441,1.907047 0.046587,2.214635 0.1230352,0.307589 0.4156958,1.660977 0.5387307,1.784013 0.1230357,0.123035 0.4306237,0.676692 0.7382117,0.73821 0.307589,0.06151 1.199595,0.06151 1.32263,-0.06151 0.123035,-0.123036 0.03076,-1.168836 0.03076,-1.168836 0,0 -0.09227,-2.522223 -0.123039,-2.676017 -0.05364,-0.754899 0.139589,-0.971819 0.184553,-0.707453 l -0.03076,2.183877 c 0,0 0.18145,1.855296 0.276829,2.122358 0.153793,0.430625 -0.09227,1.045799 1.138077,1.045799 1.230352,0 1.0458,0.06151 1.5687,-0.03076 0.461379,-0.153795 0.184553,-1.322629 0.09227,-2.6145 -0.09227,-1.291869 -0.215312,-2.491464 -0.123036,-2.676015 0.09227,-0.184554 0.184554,-0.430625 0.276831,-0.215312 0.09227,0.215312 -0.06151,0.461382 -0.06151,0.799729 0,0.338346 0.307587,3.321952 0.430622,3.875611 0.123036,0.553658 0.399866,0.984282 0.584418,0.984282 0.184553,0 1.753252,0.03076 2.060842,-0.123036 0.307587,-0.153794 0.49214,-0.768971 0.49214,-0.861246 0,-0.09227 0,-4.029405 -0.06151,-4.213958 -0.307426,-0.750548 0.230912,-0.870618 0.12304,-0.06152 0,0 -0.06151,4.490787 0,4.552306 0.06151,0.06151 -0.09227,0.584417 0.123035,0.73821 0.215312,0.153796 0.79973,0.430624 0.892005,0.430624 0.09227,0 1.568701,0 1.691736,-0.06151 0.123035,-0.06151 0.399863,-0.5229 0.369105,-0.645935 -0.03076,-0.123035 -0.03076,-0.492141 0.03076,-0.430623 0.06151,0.06151 0.307588,0.123035 0.307588,0.123035 0,0 0.184553,0 0.184553,-0.09227 0,-0.09227 -0.184553,-3.967888 -0.123035,-4.029406 0.06151,-0.06151 0.06151,0.338347 0.09227,0.461383 0.03076,0.123035 0.09227,2.245392 0.09227,2.337669 0,0.09227 0.06151,1.261112 0,1.353389 -0.06151,0.09227 -0.492141,0.03076 -0.492141,0.03076 0,0 -0.06151,0.399865 0,0.5229 0.06151,0.123035 0.03076,0.369105 -0.06151,0.461381 -0.09227,0.09227 -1.537942,0.06151 -1.722494,0.06151 -0.184553,0 -0.830488,0.03076 -0.953523,-0.09227 -0.123035,-0.123035 -0.645936,-0.369105 -0.768971,-0.369105 -0.160409,-0.03737 -0.656564,0.02125 -1.168835,0.03076 -1.070415,0.01987 -1.913699,1.107316 -1.913699,1.107316 -0.06151,0.09227 -0.461383,0.952298 0.24607,1.106093 0.331765,0.07212 1.942276,-0.210414 2.734875,-0.109026 1.014906,0.129826 1.524417,0.279155 2.992919,0.262821 0.126814,-0.0014 1.322628,-0.492142 1.630217,-0.892007 0.307587,-0.399864 1.322629,-1.321404 1.414905,-1.567474 0.09227,-0.246071 0.307589,-2.552982 0.123035,-2.768295 -0.184553,-0.21531 -1.076558,-2.645257 -1.199593,-2.799052 -0.123035,-0.153793 -0.369105,-0.399863 -0.430623,-0.615176 -0.198655,-0.21531 -0.292518,-1.303885 -0.353275,-1.549958 -0.153793,-0.24607 -0.225867,-0.663952 -0.446455,-0.922763 -0.307588,-0.215311 -0.528176,-1.095369 -1.481699,-1.095369 -0.953524,0 -1.778736,0.264881 -1.994047,0.387916 -0.215312,0.123035 -0.830488,0.338348 -0.953524,0.27683 -0.123035,-0.06151 -0.307588,-0.430624 -0.615177,-0.553659 -0.307587,-0.123036 -1.660975,-0.215312 -1.845529,-0.03076 -0.184552,0.184553 -0.76897,0.830487 -1.076558,0.892005 -0.307587,0.06151 -0.553658,-0.338346 -0.799729,-0.338346 -0.246071,0 -1.015041,0.09227 -1.168835,0.215311 -0.153795,0.123035 -0.369106,0.522899 -0.645935,0.615177 -0.276831,0.09227 -0.569491,0.215312 -0.907838,0.215312 -0.338348,0 -0.338348,-0.06151 -0.6766943,0.123035 C 9.6346408,12.861452 9.37149,13.040815 9.3072238,13.43753 Z" fill="#fff" stroke="#000" stroke-width=".325"/></svg>