<svg xmlns="http://www.w3.org/2000/svg" viewBox="0 0 33.867 33.867" height="128" width="128"><circle r="15.633" cy="16.933" cx="16.933" stroke="#e47d31" stroke-width="2.484" stroke-linecap="round" stroke-linejoin="round" paint-order="fill markers stroke"/><path d="m 17.717634,4.1246652 c 0,0 -0.212612,0.5669645 -1.488282,1.0630583 -1.275669,0.4960937 -2.338727,2.1969864 -2.551339,3.0474329 -0.212611,0.8504462 -0.779576,1.8426336 -0.354352,3.8978796 0.425223,2.055245 0.566964,4.323102 0.212611,4.890067 -0.354353,0.566964 -0.992187,1.700892 -1.417411,0.779576 -0.425223,-0.921317 0,-3.047433 -0.283482,-3.89788 -0.283482,-0.850446 -1.488281,-3.756138 -2.4095979,-3.897879 m 0,0 c 0,0 1.4882809,4.701078 -0.4960938,6.650018 -1.984375,1.94894 0.7087053,10.335286 3.7915737,11.150297 -0.23018,-0.05754 -0.736298,-1.194982 -1.149641,-2.385288 -0.387991,-1.229703 -0.694852,-1.953864 -0.283357,-2.954549 0,0 -0.03964,0.735054 0.813402,2.041839 0,0 0.343281,0.492392 0.819392,0.673718 -1.156026,-3.040064 3.047092,-3.870887 3.615403,-4.899808 0.348498,-0.662747 1.090376,-1.521286 1.090376,-1.521286 0.287289,-0.556722 0.584488,-1.160111 0.575081,-1.384406 0,0 0.03543,0.496094 0.248045,1.240234 0.208107,0.728373 0.354353,1.736329 0.637835,1.913505 0.283482,0.177176 1.34654,1.488281 1.523717,1.94894 0.177176,0.460658 0.07087,-0.248047 0.460658,-1.169364 0.389788,-0.921317 0.103788,-1.6447 0.529011,-0.510772 0.425223,1.133929 1.278188,2.388841 0.250565,4.19604 -1.027623,1.807198 -2.799386,3.685268 -3.401785,4.358538 0,0 3.153738,-0.673271 5.45703,-4.110492 2.303293,-3.437221 2.374163,-4.819196 1.133929,-7.583147 -1.240234,-2.763951 -3.118304,-7.9020643 -3.118304,-9.461216 0,-1.5591518 -1.41741,0.531529 -1.488281,1.4882812 -0.07087,0.9567518 0.460659,3.8978788 -0.531524,3.4726558 0,0 -4.783766,-2.785211 -2.374168,-7.9729347 0,0 0.236237,-0.5669644 0.188989,-1.0630581" fill="#e47d31"/></svg>