<svg xmlns="http://www.w3.org/2000/svg" viewBox="0 0 33.867 33.867" height="128" width="128"><circle r="15.633" cy="16.908" cx="16.933" fill="#fff" stroke="#000" stroke-width="2.484" stroke-linecap="round" stroke-linejoin="round" paint-order="fill markers stroke"/><path d="m 14.552083,29.189211 c -0.566964,-0.283482 -1.559152,-0.992187 -2.69308,-1.913503 -1.133929,-0.921318 -1.488282,-2.338729 -1.630023,-2.622211 -0.14174,-0.283482 0,-2.055246 -0.07087,-2.976563 C 10.087239,20.755617 9.5202752,20.684747 8.5989582,19.8343 7.6776412,18.983854 8.173735,17.849925 8.315476,16.999479 8.4572172,16.149033 9.4494045,15.79468 9.5911457,14.625316 9.7328867,13.455952 7.0398065,11.188095 9.095052,8.0697918 c 2.055245,-3.1183037 7.819382,-3.2600446 7.819382,-3.2600446 0,0 5.764137,0.1417409 7.819382,3.2600446 2.055245,3.1183032 -0.637835,5.3861602 -0.496094,6.5555242 0.141741,1.169364 1.133929,1.523717 1.27567,2.374163 0.141741,0.850446 0.637835,1.984375 -0.283482,2.834821 -0.921317,0.850447 -1.488281,0.921317 -1.559152,1.842634 -0.07087,0.921317 0.07087,2.693081 -0.07087,2.976563 -0.141741,0.283482 -0.496094,1.700893 -1.630023,2.622211 -1.133928,0.921316 -2.126116,1.630021 -2.69308,1.913503 -0.566964,0.283483 -2.362351,-0.165364 -2.362351,-0.165364 0,0 -1.795387,0.448847 -2.362351,0.165364 z" stroke="#000" stroke-width=".265"/><path d="M23.353 17.613c-.312.74-1.133 1.453-2.531 1.453-1.398 0-2.831-.901-2.831-1.704 0-.803 1.246-1.065 2.18-1.554 2.263-1.184 3.887.134 3.182 1.804zM10.834 17.613c.312.74 1.133 1.453 2.531 1.453 1.398 0 2.831-.901 2.831-1.704 0-.803-1.246-1.065-2.18-1.554-2.263-1.184-3.887.134-3.182 1.804z" fill="#fff" stroke="#fff" stroke-width=".268" paint-order="fill markers stroke"/><path d="m22.82 21.486-1.002.605 0 2.292 1.002-.796zM11.304 21.486l1.002.605 0 2.292-1.002-.796z" fill="#fff" stroke="#fff" stroke-width=".265" stroke-linejoin="bevel"/><path d="M13.87 24.094v1.639h.83V24.094ZM15.045 24.401v1.488h.78v-1.488zM18.023 24.401v1.488h.78v-1.488z" fill="#fff" stroke="#fff" stroke-width=".238" stroke-linejoin="bevel"/><path d="m 19.153366,24.09378 v 1.638927 h 0.829823 V 24.09378 Z" fill="#fff" stroke="#fff" stroke-width=".238" stroke-linecap="round" stroke-linejoin="bevel"/><path d="M16.142 24.788v1.207h.633V24.788ZM17.069 24.788v1.207h.633V24.788Z" fill="#fff" stroke="#fff" stroke-width=".193" stroke-linejoin="bevel"/><path d="m 18.297763,21.927738 c -0.180958,0.0468 -0.43124,0.08163 -0.62935,-0.04763 -0.27171,-0.177281 -0.293629,-0.787635 -0.742119,-1.101514 -0.44849,0.313879 -0.470409,0.924233 -0.742119,1.101514 -0.19811,0.12926 -0.448392,0.09443 -0.62935,0.04763 -0.582547,-0.150669 0.775747,-3.155833 1.371469,-3.155833 0.595722,0 1.954016,3.005164 1.371469,3.155833 z" fill="#fff" stroke="#fff" stroke-width=".225" stroke-linecap="round" stroke-linejoin="bevel" paint-order="fill markers stroke"/></svg>