<svg xmlns="http://www.w3.org/2000/svg" viewBox="0 0 33.867 33.867" height="128" width="128"><circle r="15.633" cy="16.933" cx="16.933" stroke="#ffe646" stroke-width="2.484" stroke-linecap="round" stroke-linejoin="round" paint-order="fill markers stroke"/><circle cx="16.933" cy="16.933" r="3.191" stroke="#ffe646" stroke-width="1.323" stroke-linecap="round" stroke-linejoin="round" paint-order="fill markers stroke"/><path d="m 13.347284,16.503385 c -0.856259,-1.442971 -0.510308,-2.597508 0.212611,-4.110491 1.444251,-2.355924 3.985163,-2.7781997 3.153739,-2.9411269 -1.532194,-0.2283601 -2.60296,-0.2548244 -2.69308,-0.4960938 0.392279,-2.291523 5.083493,-3.3308383 8.59861,-3.9633654 0,0 -4.145581,-1.8977924 -9.717378,1.3958699 -2.285207,1.3508569 -4.1442873,3.8756212 -4.2498489,8.2246312 0.983318,-1.200455 2.1085169,-2.412883 3.2481289,-2.616675 -0.365863,1.764589 -0.722451,4.006709 0.765664,6.082083 0.854489,1.153143 2.327066,2.8054 3.870728,2.571094 -1.412287,-1.149156 -2.878178,-2.262576 -3.189174,-4.145926 z" fill="#ffe646"/><path d="m 20.730147,17.2361 c 0.856259,1.442971 0.510308,2.597508 -0.212611,4.110491 -1.444251,2.355924 -3.985163,2.7782 -3.153739,2.941127 1.532194,0.22836 2.60296,0.254824 2.69308,0.496094 -0.392279,2.291523 -5.083493,3.330838 -8.59861,3.963365 0,0 4.145581,1.897793 9.717378,-1.39587 2.285207,-1.350857 4.144287,-3.875621 4.249849,-8.224631 -0.983318,1.200455 -2.108517,2.412883 -3.248129,2.616675 0.365863,-1.764589 0.722451,-4.006709 -0.765664,-6.082083 -0.854489,-1.153143 -2.468807,-2.663659 -4.012469,-2.429353 1.412287,1.149156 3.019919,2.120835 3.330915,4.004185 z" fill="#ffe646"/></svg>